<?xml version="1.0" encoding="UTF-8" standalone="no"?>
<!-- Created with Inkscape (http://www.inkscape.org/) -->

<svg
   xmlns:dc="http://purl.org/dc/elements/1.1/"
   xmlns:cc="http://creativecommons.org/ns#"
   xmlns:rdf="http://www.w3.org/1999/02/22-rdf-syntax-ns#"
   xmlns:svg="http://www.w3.org/2000/svg"
   xmlns="http://www.w3.org/2000/svg"
   xmlns:sodipodi="http://sodipodi.sourceforge.net/DTD/sodipodi-0.dtd"
   xmlns:inkscape="http://www.inkscape.org/namespaces/inkscape"
   version="1.1"
   id="svg2"
   xml:space="preserve"
   width="945"
   height="945"
   viewBox="0 0 945 944.99999"
   sodipodi:docname="favicon.svg"
   inkscape:version="0.92.3 (2405546, 2018-03-11)"
   inkscape:export-filename="D:\Apps\Streaming\eef\assets\favicon.png"
   inkscape:export-xdpi="96"
   inkscape:export-ydpi="96"><metadata
     id="metadata8"><rdf:RDF><cc:Work
         rdf:about=""><dc:format>image/svg+xml</dc:format><dc:type
           rdf:resource="http://purl.org/dc/dcmitype/StillImage" /><dc:title></dc:title></cc:Work></rdf:RDF></metadata><defs
     id="defs6" /><sodipodi:namedview
     pagecolor="#ffffff"
     bordercolor="#666666"
     borderopacity="1"
     objecttolerance="10"
     gridtolerance="10"
     guidetolerance="10"
     inkscape:pageopacity="0"
     inkscape:pageshadow="2"
     inkscape:window-width="1920"
     inkscape:window-height="1017"
     id="namedview4"
     showgrid="false"
     inkscape:zoom="0.37688975"
     inkscape:cx="41.126078"
     inkscape:cy="181.7"
     inkscape:window-x="-8"
     inkscape:window-y="-8"
     inkscape:window-maximized="1"
     inkscape:current-layer="g12" /><g
     id="g10"
     inkscape:groupmode="layer"
     inkscape:label="ink_ext_XXXXXX"
     transform="matrix(1.3333333,0,0,-1.3333333,0,945.00001)"><g
       id="g12"
       transform="scale(0.1)"><g
         id="g904"
         transform="translate(1.5750886,2180.9752)"><path
           inkscape:connector-curvature="0"
           id="path14"
           style="fill:#2e3184;fill-opacity:1;fill-rule:nonzero;stroke:none"
           d="m 6113.52,696.988 c -41.05,0 -74.34,6.313 -99.91,18.891 -25.55,12.582 -45.35,30.062 -59.39,52.371 -14.03,22.301 -23.4,48.609 -28.08,78.84 -4.67,30.238 -7.02,63 -7.02,98.269 v 289.431 h 162 V 977.77 c 0,-15.122 0.53,-30.782 1.62,-46.989 1.08,-16.191 4.31,-31.152 9.71,-44.812 5.4,-13.68 13.68,-24.828 24.85,-33.481 11.15,-8.636 27.17,-12.957 48.05,-12.957 20.88,0 37.8,3.778 50.75,11.34 12.96,7.559 22.87,17.641 29.7,30.238 6.85,12.582 11.34,26.821 13.51,42.661 2.15,15.808 3.23,32.398 3.23,49.671 v 261.349 h 161.99 V 709.941 h -155.51 v 71.27 h -2.15 c -5.77,-10.09 -13.15,-20.152 -22.14,-30.231 -9.01,-10.101 -19.98,-19.082 -32.94,-27 -12.96,-7.941 -27.73,-14.402 -44.28,-19.441 -16.56,-5.019 -34.56,-7.551 -53.99,-7.551" /><path
           inkscape:connector-curvature="0"
           id="path16"
           style="fill:#2e3184;fill-opacity:1;fill-rule:nonzero;stroke:none"
           d="m 7084.35,709.941 h -204.12 l -177.1,265.668 h -2.16 V 709.941 H 6538.98 V 1474.7 h 161.99 v -447.26 l 179.26,207.35 h 198.72 l -208.43,-236.509 213.83,-288.34" /><path
           inkscape:connector-curvature="0"
           id="path18"
           style="fill:#2e3184;fill-opacity:1;fill-rule:nonzero;stroke:none"
           d="m 3279.4,706.98 h -204.48 l -66.57,181.59 h -611.31 l -66.59,-181.59 h -213.03 v 1113.86 l 343.17,904.71 h 484.21 l 334.6,-882.14 V 706.98 m -576.71,980.55 -136.18,-354.09 h 272.37 l -136.19,354.09" /><path
           inkscape:connector-curvature="0"
           id="path20"
           style="fill:#be1c2d;fill-opacity:1;fill-rule:nonzero;stroke:none"
           d="M 3933.09,706.98 H 3279.4 3710.46 L 3279.4,1843.41 v 882.14 h 653.69 v -466.04 l 381.33,466.04 h 789.84 l -710.96,-0.01 V 1802.8 l -0.21,-0.28 0.21,-0.31 V 706.98 h -30.48 l -429.73,623.43 V 706.98" /><path
           inkscape:connector-curvature="0"
           id="path22"
           style="fill:#201318;fill-opacity:1;fill-rule:nonzero;stroke:none"
           d="m 3710.46,706.98 v 0 L 3279.4,1843.41 V 706.98 1843.41 L 3710.46,706.98" /><path
           inkscape:connector-curvature="0"
           id="path24"
           style="fill:#386dbe;fill-opacity:1;fill-rule:nonzero;stroke:none"
           d="m 1694.93,706.98 h -222.12 v 726.33 L 1061.24,828.039 646.621,1433.31 V 706.98 H 2.01953 V 2725.55 H 534.656 l 526.584,-774.73 523.55,774.73 h 532.63 V 1820.84 L 1694.93,706.98" /><path
           inkscape:connector-curvature="0"
           id="path26"
           style="fill:#2e3184;fill-opacity:1;fill-rule:nonzero;stroke:none"
           d="M 160.156,103.91 H 125.688 V 436.398 H 0 v 29.403 H 286.363 V 436.398 H 160.156 V 103.91" /><path
           inkscape:connector-curvature="0"
           id="path28"
           style="fill:#2e3184;fill-opacity:1;fill-rule:nonzero;stroke:none"
           d="m 526.098,103.91 h -31.934 v 163.199 c 0,11.153 -1.004,21.539 -3.035,31.172 -2.031,9.629 -5.586,18 -10.641,25.098 -5.078,7.09 -11.914,12.66 -20.531,16.723 -8.621,4.046 -19.352,6.078 -32.187,6.078 -12.848,0 -24.254,-2.282 -34.207,-6.84 -9.985,-4.559 -18.426,-10.809 -25.348,-18.75 -6.93,-7.949 -12.34,-17.41 -16.227,-28.379 -3.886,-10.992 -5.992,-22.902 -6.32,-35.731 V 103.91 h -31.941 v 361.891 h 31.941 V 320.328 h 1.008 c 6.074,15.883 16.894,28.641 32.437,38.281 15.543,9.621 32.606,14.43 51.196,14.43 18.238,0 33.527,-2.359 45.867,-7.09 12.328,-4.738 22.219,-11.41 29.644,-20.019 7.434,-8.621 12.672,-19.18 15.707,-31.68 3.047,-12.512 4.571,-26.52 4.571,-42.07 V 103.91" /><path
           inkscape:connector-curvature="0"
           id="path30"
           style="fill:#2e3184;fill-opacity:1;fill-rule:nonzero;stroke:none"
           d="m 691.324,96.8086 c -20.613,0 -38.441,3.6404 -53.472,10.9024 -15.043,7.258 -27.286,17.238 -36.743,29.898 -9.461,12.68 -16.468,27.371 -21.039,44.102 -4.55,16.719 -6.836,34.379 -6.836,52.961 0,17.238 2.286,34.129 6.836,50.687 4.571,16.551 11.578,31.34 21.039,44.36 9.457,12.992 21.7,23.48 36.743,31.422 15.031,7.918 32.859,11.898 53.472,11.898 20.953,0 38.86,-4.23 53.727,-12.668 14.867,-8.441 26.945,-19.512 36.238,-33.191 9.289,-13.692 15.965,-29.399 20.027,-47.141 4.051,-17.73 5.743,-35.73 5.067,-53.969 H 605.156 c 0,-11.5 1.606,-23.41 4.824,-35.742 3.204,-12.34 8.36,-23.398 15.458,-33.199 7.097,-9.801 16.039,-17.918 26.859,-24.34 10.816,-6.418 23.816,-9.609 39.027,-9.609 23.317,0 41.563,6.07 54.742,18.242 13.176,12.168 22.297,28.379 27.368,48.656 h 31.933 C 798.602,160.34 786.184,137.359 768.121,121.141 750.039,104.922 724.441,96.8086 691.324,96.8086 m 0,249.3714 c -13.179,0 -24.832,-2.621 -34.969,-7.86 -10.132,-5.242 -18.757,-12.16 -25.851,-20.769 -7.09,-8.621 -12.75,-18.59 -16.977,-29.903 -4.23,-11.328 -7.019,-22.91 -8.371,-34.726 h 169.293 c -0.332,12.156 -2.453,23.816 -6.328,34.969 -3.898,11.16 -9.383,21.039 -16.48,29.66 -7.098,8.609 -15.715,15.527 -25.852,20.769 -10.133,5.239 -21.621,7.86 -34.465,7.86" /><path
           inkscape:connector-curvature="0"
           id="path32"
           style="fill:#2e3184;fill-opacity:1;fill-rule:nonzero;stroke:none"
           d="m 1341.61,103.91 h -34.46 v 312.719 h -1.02 L 1182.46,103.91 h -32.43 l -119.12,312.719 h -1.01 V 103.91 h -34.47 v 361.891 h 50.68 l 120.13,-317.281 124.68,317.281 h 50.69 V 103.91" /><path
           inkscape:connector-curvature="0"
           id="path34"
           style="fill:#2e3184;fill-opacity:1;fill-rule:nonzero;stroke:none"
           d="m 1479.98,96.8086 c -12.17,0 -23.58,1.4414 -34.22,4.3124 -10.64,2.867 -19.94,7.43 -27.87,13.688 -7.94,6.25 -14.19,14.191 -18.76,23.82 -4.56,9.641 -6.83,21.039 -6.83,34.211 0,18.262 4.04,32.512 12.16,42.828 8.11,10.312 18.83,18.152 32.18,23.57 13.35,5.403 28.38,9.203 45.1,11.41 16.74,2.192 33.72,4.301 50.95,6.34 6.75,0.672 12.67,1.512 17.74,2.524 5.06,1.019 9.28,2.797 12.67,5.316 3.37,2.543 5.99,5.992 7.86,10.402 1.85,4.379 2.78,10.129 2.78,17.231 0,10.801 -1.77,19.668 -5.32,26.598 -3.56,6.929 -8.45,12.429 -14.7,16.48 -6.25,4.051 -13.51,6.84 -21.8,8.359 -8.27,1.524 -17.15,2.282 -26.61,2.282 -20.26,0 -36.82,-4.809 -49.66,-14.45 -12.85,-9.621 -19.6,-25.089 -20.28,-46.371 h -31.92 c 1.01,15.2 4.22,28.379 9.62,39.539 5.4,11.141 12.75,20.274 22.05,27.372 9.29,7.101 20.19,12.332 32.69,15.699 12.5,3.383 26.35,5.07 41.57,5.07 11.48,0 22.97,-1.09 34.46,-3.289 11.48,-2.211 21.79,-6.328 30.92,-12.41 9.12,-6.09 16.54,-14.629 22.3,-25.61 5.74,-10.98 8.62,-25.261 8.62,-42.82 V 150.031 c 0,-12.84 6.25,-19.261 18.75,-19.261 3.71,0 7.09,0.671 10.13,2.019 v -26.848 c -3.72,-0.679 -7.02,-1.191 -9.89,-1.523 -2.87,-0.348 -6.5,-0.508 -10.89,-0.508 -8.1,0 -14.62,1.09 -19.51,3.289 -4.9,2.199 -8.71,5.332 -11.4,9.391 -2.72,4.051 -4.49,8.859 -5.33,14.43 -0.84,5.582 -1.26,11.75 -1.26,18.5 h -1.01 c -5.76,-8.442 -11.59,-15.961 -17.49,-22.551 -5.92,-6.59 -12.51,-12.078 -19.77,-16.469 -7.28,-4.391 -15.54,-7.77 -24.84,-10.141 -9.29,-2.359 -20.35,-3.5504 -33.19,-3.5504 m 92.76,150.0314 c -2.04,-3.719 -5.92,-6.43 -11.66,-8.11 -5.76,-1.699 -10.83,-2.878 -15.21,-3.55 -13.52,-2.371 -27.46,-4.481 -41.82,-6.328 -14.36,-1.852 -27.46,-4.653 -39.27,-8.364 -11.83,-3.726 -21.55,-9.047 -29.15,-15.976 -7.6,-6.922 -11.41,-16.801 -11.41,-29.641 0,-8.109 1.6,-15.289 4.81,-21.539 3.22,-6.262 7.52,-11.66 12.93,-16.23 5.4,-4.563 11.66,-8.032 18.75,-10.391 7.1,-2.352 14.36,-3.531 21.8,-3.531 12.16,0 23.82,1.851 34.97,5.558 11.14,3.711 20.86,9.121 29.15,16.223 8.28,7.098 14.86,15.719 19.76,25.848 4.9,10.14 7.35,21.621 7.35,34.472 v 41.559 h -1" /><path
           inkscape:connector-curvature="0"
           id="path36"
           style="fill:#2e3184;fill-opacity:1;fill-rule:nonzero;stroke:none"
           d="m 1881.4,103.91 h -31.94 v 163.199 c 0,11.153 -1,21.539 -3.03,31.172 -2.03,9.629 -5.59,18 -10.64,25.098 -5.08,7.09 -11.92,12.66 -20.54,16.723 -8.62,4.046 -19.35,6.078 -32.18,6.078 -12.85,0 -24.26,-2.282 -34.21,-6.84 -9.98,-4.559 -18.42,-10.809 -25.35,-18.75 -6.93,-7.949 -12.34,-17.41 -16.22,-28.379 -3.89,-10.992 -6,-22.902 -6.33,-35.731 V 103.91 h -31.94 v 261.539 h 31.94 v -45.121 h 1.01 c 6.08,15.883 16.89,28.641 32.44,38.281 15.54,9.621 32.61,14.43 51.19,14.43 18.24,0 33.53,-2.359 45.87,-7.09 12.33,-4.738 22.22,-11.41 29.65,-20.019 7.43,-8.621 12.67,-19.18 15.71,-31.68 3.05,-12.512 4.57,-26.52 4.57,-42.07 V 103.91" /><path
           inkscape:connector-curvature="0"
           id="path38"
           style="fill:#2e3184;fill-opacity:1;fill-rule:nonzero;stroke:none"
           d="m 2032.94,96.8086 c -16.56,0 -30.66,2.2812 -42.32,6.8394 -11.65,4.571 -21.12,11.071 -28.39,19.532 -7.26,8.429 -12.59,18.75 -15.97,30.91 -3.38,12.16 -5.06,26.012 -5.06,41.558 v 169.801 h 31.93 V 195.141 c 0.67,-23.653 6.17,-41.551 16.48,-53.719 10.3,-12.172 28.13,-18.242 53.46,-18.242 13.87,0 25.68,2.949 35.48,8.851 9.8,5.91 17.91,13.77 24.33,23.578 6.42,9.789 11.15,21.032 14.19,33.711 3.05,12.668 4.57,25.59 4.57,38.77 v 137.359 h 31.93 V 103.91 h -29.4 v 47.141 h -1.01 c -8.45,-17.582 -20.7,-31.012 -36.74,-40.301 -16.06,-9.289 -33.89,-13.9414 -53.48,-13.9414" /><path
           inkscape:connector-curvature="0"
           id="path40"
           style="fill:#2e3184;fill-opacity:1;fill-rule:nonzero;stroke:none"
           d="m 2263.05,103.91 h -31.95 v 234.668 h -44.6 v 26.871 h 44.6 v 23.821 c 0,11.14 0.84,21.449 2.54,30.921 1.69,9.45 4.9,17.559 9.63,24.309 4.73,6.762 11.23,12.012 19.52,15.73 8.27,3.711 18.82,5.571 31.67,5.571 4.73,0 9.12,-0.172 13.18,-0.5 4.06,-0.352 8.61,-0.852 13.69,-1.531 v -27.372 c -4.4,0.672 -8.45,1.274 -12.16,1.782 -3.73,0.488 -7.44,0.75 -11.15,0.75 -8.8,0 -15.56,-1.352 -20.28,-4.051 -4.74,-2.699 -8.19,-6.328 -10.4,-10.891 -2.2,-4.558 -3.45,-9.886 -3.79,-15.968 -0.35,-6.079 -0.5,-12.668 -0.5,-19.77 v -22.801 h 51.68 v -26.871 h -51.68 V 103.91" /><path
           inkscape:connector-curvature="0"
           id="path42"
           style="fill:#2e3184;fill-opacity:1;fill-rule:nonzero;stroke:none"
           d="m 2418.63,96.8086 c -12.16,0 -23.57,1.4414 -34.21,4.3124 -10.64,2.867 -19.94,7.43 -27.88,13.688 -7.93,6.25 -14.18,14.191 -18.75,23.82 -4.56,9.641 -6.83,21.039 -6.83,34.211 0,18.262 4.04,32.512 12.16,42.828 8.1,10.312 18.82,18.152 32.18,23.57 13.34,5.403 28.38,9.203 45.1,11.41 16.73,2.192 33.71,4.301 50.94,6.34 6.76,0.672 12.68,1.512 17.74,2.524 5.07,1.019 9.29,2.797 12.68,5.316 3.36,2.543 5.99,5.992 7.86,10.402 1.85,4.379 2.78,10.129 2.78,17.231 0,10.801 -1.77,19.668 -5.32,26.598 -3.55,6.929 -8.46,12.429 -14.71,16.48 -6.24,4.051 -13.51,6.84 -21.79,8.359 -8.27,1.524 -17.15,2.282 -26.61,2.282 -20.27,0 -36.82,-4.809 -49.66,-14.45 -12.85,-9.621 -19.61,-25.089 -20.28,-46.371 h -31.92 c 1.01,15.2 4.21,28.379 9.62,39.539 5.4,11.141 12.75,20.274 22.05,27.372 9.29,7.101 20.19,12.332 32.69,15.699 12.5,3.383 26.35,5.07 41.56,5.07 11.48,0 22.97,-1.09 34.47,-3.289 11.48,-2.211 21.78,-6.328 30.91,-12.41 9.13,-6.09 16.55,-14.629 22.31,-25.61 5.74,-10.98 8.61,-25.261 8.61,-42.82 V 150.031 c 0,-12.84 6.25,-19.261 18.76,-19.261 3.71,0 7.1,0.671 10.13,2.019 v -26.848 c -3.72,-0.679 -7.02,-1.191 -9.89,-1.523 -2.87,-0.348 -6.5,-0.508 -10.89,-0.508 -8.11,0 -14.62,1.09 -19.51,3.289 -4.9,2.199 -8.71,5.332 -11.41,9.391 -2.71,4.051 -4.48,8.859 -5.32,14.43 -0.84,5.582 -1.26,11.75 -1.26,18.5 h -1.02 c -5.75,-8.442 -11.58,-15.961 -17.48,-22.551 -5.92,-6.59 -12.51,-12.078 -19.77,-16.469 -7.27,-4.391 -15.55,-7.77 -24.84,-10.141 -9.29,-2.359 -20.35,-3.5504 -33.2,-3.5504 m 92.76,150.0314 c -2.03,-3.719 -5.92,-6.43 -11.65,-8.11 -5.76,-1.699 -10.83,-2.878 -15.21,-3.55 -13.53,-2.371 -27.46,-4.481 -41.82,-6.328 -14.36,-1.852 -27.46,-4.653 -39.28,-8.364 -11.83,-3.726 -21.54,-9.047 -29.15,-15.976 -7.59,-6.922 -11.4,-16.801 -11.4,-29.641 0,-8.109 1.6,-15.289 4.81,-21.539 3.21,-6.262 7.52,-11.66 12.93,-16.23 5.4,-4.563 11.66,-8.032 18.76,-10.391 7.09,-2.352 14.35,-3.531 21.78,-3.531 12.17,0 23.83,1.851 34.97,5.558 11.16,3.711 20.87,9.121 29.16,16.223 8.28,7.098 14.86,15.719 19.76,25.848 4.9,10.14 7.35,21.621 7.35,34.472 v 41.559 h -1.01" /><path
           inkscape:connector-curvature="0"
           id="path44"
           style="fill:#2e3184;fill-opacity:1;fill-rule:nonzero;stroke:none"
           d="m 2718.69,96.8086 c -19.95,0 -37.6,3.6404 -52.97,10.9024 -15.38,7.258 -28.31,17.16 -38.78,29.648 -10.47,12.5 -18.41,27.11 -23.81,43.84 -5.41,16.723 -8.11,34.563 -8.11,53.473 0,18.93 2.7,36.75 8.11,53.476 5.4,16.723 13.34,31.332 23.81,43.832 10.47,12.5 23.4,22.481 38.78,29.918 15.37,7.422 33.02,11.141 52.97,11.141 28.04,0 51.77,-7.418 71.22,-22.301 19.42,-14.867 30.99,-37.34 34.71,-67.41 h -31.93 c -4.4,19.594 -12.51,34.973 -24.33,46.141 -11.83,11.14 -28.38,16.711 -49.67,16.711 -15.2,0 -28.56,-3.219 -40.04,-9.629 -11.5,-6.41 -21.04,-14.871 -28.64,-25.34 -7.6,-10.481 -13.35,-22.391 -17.23,-35.731 -3.89,-13.351 -5.84,-26.949 -5.84,-40.808 0,-13.852 1.95,-27.453 5.84,-40.793 3.88,-13.359 9.63,-25.27 17.23,-35.731 7.6,-10.476 17.14,-18.937 28.64,-25.359 11.48,-6.418 24.84,-9.609 40.04,-9.609 9.79,0 19.09,1.851 27.87,5.558 8.79,3.711 16.56,8.871 23.31,15.461 6.76,6.59 12.34,14.449 16.74,23.571 4.38,9.128 7.09,19.089 8.1,29.902 h 31.94 c -4.4,-31.762 -16.05,-56.512 -34.97,-74.242 -18.93,-17.739 -43.27,-26.6214 -72.99,-26.6214" /><path
           inkscape:connector-curvature="0"
           id="path46"
           style="fill:#2e3184;fill-opacity:1;fill-rule:nonzero;stroke:none"
           d="m 2946.77,101.371 c -21.3,0 -36.16,4.141 -44.61,12.418 -8.44,8.281 -12.5,23.57 -12.16,45.879 v 178.91 h -45.61 v 26.871 H 2890 v 78.563 h 31.93 v -78.563 h 53.22 v -26.871 h -53.22 V 162.191 c 0,-10.472 1.44,-18.66 4.31,-24.582 2.87,-5.918 10.05,-9.211 21.53,-9.879 9.13,0 18.26,0.508 27.38,1.52 v -26.871 c -4.74,0 -9.46,-0.16 -14.2,-0.5 -4.72,-0.328 -9.46,-0.508 -14.18,-0.508" /><path
           inkscape:connector-curvature="0"
           id="path48"
           style="fill:#2e3184;fill-opacity:1;fill-rule:nonzero;stroke:none"
           d="m 3112.5,96.8086 c -16.57,0 -30.66,2.2812 -42.32,6.8394 -11.66,4.571 -21.13,11.071 -28.39,19.532 -7.26,8.429 -12.59,18.75 -15.96,30.91 -3.38,12.16 -5.07,26.012 -5.07,41.558 v 169.801 h 31.92 V 195.141 c 0.68,-23.653 6.17,-41.551 16.48,-53.719 10.31,-12.172 28.14,-18.242 53.47,-18.242 13.86,0 25.68,2.949 35.48,8.851 9.8,5.91 17.92,13.77 24.33,23.578 6.42,9.789 11.16,21.032 14.2,33.711 3.03,12.668 4.56,25.59 4.56,38.77 v 137.359 h 31.93 V 103.91 h -29.39 v 47.141 h -1.02 c -8.46,-17.582 -20.7,-31.012 -36.75,-40.301 -16.05,-9.289 -33.87,-13.9414 -53.47,-13.9414" /><path
           inkscape:connector-curvature="0"
           id="path50"
           style="fill:#2e3184;fill-opacity:1;fill-rule:nonzero;stroke:none"
           d="m 3325.36,103.91 h -31.93 v 261.539 h 29.4 v -61.34 h 1.02 c 8.11,21.289 20.68,37.68 37.75,49.172 15.68,10.547 34.14,15.828 55.38,15.828 1.87,0 3.77,-0.039 5.7,-0.121 v -31.937 c -1.88,0.09 -3.73,0.129 -5.57,0.129 -12.34,0 -23.67,-1.981 -33.96,-5.95 -11.84,-4.558 -22.06,-11.07 -30.67,-19.511 -8.61,-8.457 -15.29,-18.5 -20.01,-30.149 -4.75,-11.679 -7.11,-24.422 -7.11,-38.281 V 103.91" /><path
           inkscape:connector-curvature="0"
           id="path52"
           style="fill:#2e3184;fill-opacity:1;fill-rule:nonzero;stroke:none"
           d="m 3548.89,96.8086 c -20.62,0 -38.44,3.6404 -53.48,10.9024 -15.04,7.258 -27.29,17.238 -36.75,29.898 -9.46,12.68 -16.47,27.371 -21.03,44.102 -4.56,16.719 -6.84,34.379 -6.84,52.961 0,17.238 2.28,34.129 6.84,50.687 4.56,16.551 11.57,31.34 21.03,44.36 9.46,12.992 21.71,23.48 36.75,31.422 15.04,7.918 32.86,11.898 53.48,11.898 20.94,0 38.85,-4.23 53.71,-12.668 14.87,-8.441 26.95,-19.512 36.27,-33.191 9.27,-13.692 15.95,-29.399 20.01,-47.141 4.06,-17.73 5.74,-35.73 5.06,-53.969 h -201.21 c 0,-11.5 1.59,-23.41 4.81,-35.742 3.21,-12.34 8.36,-23.398 15.45,-33.199 7.11,-9.801 16.05,-17.918 26.87,-24.34 10.81,-6.418 23.82,-9.609 39.03,-9.609 23.31,0 41.55,6.07 54.73,18.242 13.18,12.168 22.32,28.379 27.38,48.656 h 31.94 c -6.78,-29.738 -19.2,-52.719 -37.26,-68.937 -18.09,-16.219 -43.68,-24.3324 -76.79,-24.3324 m 0,249.3714 c -13.18,0 -24.84,-2.621 -34.97,-7.86 -10.14,-5.242 -18.76,-12.16 -25.85,-20.769 -7.1,-8.621 -12.76,-18.59 -16.99,-29.903 -4.22,-11.328 -7.01,-22.91 -8.35,-34.726 h 169.28 c -0.33,12.156 -2.46,23.816 -6.33,34.969 -3.9,11.16 -9.39,21.039 -16.47,29.66 -7.11,8.609 -15.72,15.527 -25.86,20.769 -10.13,5.239 -21.63,7.86 -34.46,7.86" /><path
           inkscape:connector-curvature="0"
           id="path54"
           style="fill:#2e3184;fill-opacity:1;fill-rule:nonzero;stroke:none"
           d="m 3738.96,103.91 h -31.93 v 261.539 h 29.39 v -61.34 h 1.01 c 8.12,21.289 20.7,37.68 37.77,49.172 15.67,10.547 34.12,15.828 55.37,15.828 1.88,0 3.78,-0.039 5.7,-0.121 v -31.937 c -1.88,0.09 -3.73,0.129 -5.56,0.129 -12.35,0 -23.67,-1.981 -33.98,-5.95 -11.84,-4.558 -22.04,-11.07 -30.66,-19.511 -8.61,-8.457 -15.29,-18.5 -20.03,-30.149 -4.72,-11.679 -7.08,-24.422 -7.08,-38.281 V 103.91" /><path
           inkscape:connector-curvature="0"
           id="path56"
           style="fill:#2e3184;fill-opacity:1;fill-rule:nonzero;stroke:none"
           d="m 3959.43,96.8086 c -30.75,0 -55.68,7.2614 -74.76,21.8124 -19.09,14.508 -29.99,37.828 -32.71,69.938 h 31.95 c 1.35,-21.629 9.2,-37.938 23.57,-48.918 14.35,-10.981 32.18,-16.461 53.46,-16.461 7.77,0 15.8,0.84 24.08,2.531 8.27,1.68 15.97,4.559 23.06,8.609 7.11,4.051 12.92,9.211 17.49,15.461 4.57,6.25 6.83,13.93 6.83,23.059 0,7.769 -1.6,14.269 -4.8,19.519 -3.22,5.231 -7.52,9.629 -12.92,13.172 -5.41,3.559 -11.58,6.5 -18.52,8.879 -6.91,2.352 -13.91,4.379 -21.02,6.078 l -41.05,9.114 c -10.48,2.707 -20.1,5.828 -28.89,9.386 -8.79,3.543 -16.49,7.93 -23.06,13.172 -6.6,5.25 -11.76,11.649 -15.47,19.262 -3.71,7.609 -5.56,16.976 -5.56,28.129 0,13.179 2.94,24.508 8.86,33.961 5.92,9.449 13.59,17.058 23.06,22.808 9.45,5.739 20.02,9.961 31.67,12.668 11.66,2.703 23.24,4.051 34.73,4.051 13.17,0 25.42,-1.687 36.73,-5.07 11.33,-3.367 21.31,-8.598 29.92,-15.699 8.61,-7.098 15.46,-15.891 20.52,-26.36 5.08,-10.48 7.94,-22.808 8.63,-37 h -31.95 c -0.33,9.789 -2.36,18.32 -6.06,25.602 -3.73,7.258 -8.71,13.258 -14.96,17.976 -6.25,4.731 -13.44,8.203 -21.54,10.391 -8.12,2.199 -16.73,3.301 -25.86,3.301 -7.09,0 -14.26,-0.758 -21.53,-2.282 -7.28,-1.519 -13.94,-4.046 -20.03,-7.609 -6.07,-3.539 -10.98,-8.18 -14.69,-13.918 -3.73,-5.762 -5.58,-12.859 -5.58,-21.301 0,-7.09 1.78,-13.09 5.33,-17.992 3.54,-4.898 8.01,-9.039 13.42,-12.418 5.4,-3.379 11.32,-6.172 17.74,-8.351 6.43,-2.207 12.35,-3.989 17.76,-5.321 l 42.55,-9.636 c 9.13,-1.364 18.17,-3.801 27.13,-7.364 8.94,-3.539 16.89,-8.187 23.82,-13.918 6.92,-5.761 12.58,-12.851 16.97,-21.3 4.39,-8.45 6.6,-18.418 6.6,-29.899 0,-14.191 -3.23,-26.269 -9.63,-36.242 -6.42,-9.969 -14.62,-18.078 -24.58,-24.328 -9.98,-6.262 -21.22,-10.723 -33.72,-13.43 -12.49,-2.703 -24.82,-4.0624 -36.99,-4.0624" /><path
           inkscape:connector-curvature="0"
           id="path58"
           style="fill:#2e3184;fill-opacity:1;fill-rule:nonzero;stroke:none"
           d="m 4127.69,342.629 v 21.812 c 4.37,1.34 8.1,3.789 11.15,7.34 3.05,3.547 5.56,7.68 7.6,12.41 2.03,4.739 3.45,9.547 4.31,14.45 0.84,4.89 1.1,9.379 0.76,13.429 h -21.28 v 53.731 h 42.56 v -54.242 c 0,-7.438 -0.93,-14.778 -2.79,-22.039 -1.86,-7.27 -4.65,-14.032 -8.36,-20.282 -3.73,-6.25 -8.35,-11.738 -13.93,-16.457 -5.57,-4.742 -12.25,-8.121 -20.02,-10.152" /><path
           inkscape:connector-curvature="0"
           id="path60"
           style="fill:#2e3184;fill-opacity:1;fill-rule:nonzero;stroke:none"
           d="m 4549.89,96.8086 c -28.39,0 -53.3,5.1604 -74.76,15.4724 -21.46,10.297 -39.27,24.071 -53.46,41.309 -14.2,17.219 -24.84,37.16 -31.94,59.801 -7.09,22.629 -10.65,46.461 -10.65,71.468 0,25 3.56,48.809 10.65,71.461 7.1,22.629 17.74,42.66 31.94,60.059 14.19,17.402 32,31.25 53.46,41.562 21.46,10.309 46.37,15.457 74.76,15.457 28.39,0 53.23,-5.148 74.52,-15.457 21.27,-10.312 39.03,-24.16 53.22,-41.562 14.18,-17.399 24.82,-37.43 31.92,-60.059 7.09,-22.652 10.65,-46.461 10.65,-71.461 0,-25.007 -3.56,-48.839 -10.65,-71.468 -7.1,-22.641 -17.74,-42.582 -31.92,-59.801 -14.19,-17.238 -31.95,-31.012 -53.22,-41.309 -21.29,-10.312 -46.13,-15.4724 -74.52,-15.4724 m 0,347.2034 c -23.99,0 -44.6,-4.571 -61.83,-13.692 -17.23,-9.129 -31.34,-21.218 -42.32,-36.23 -10.99,-15.051 -19.09,-32.031 -24.32,-50.949 -5.26,-18.922 -7.87,-38.352 -7.87,-58.282 0,-19.609 2.61,-38.949 7.87,-58.031 5.23,-19.098 13.33,-36.16 24.32,-51.199 10.98,-15.039 25.09,-27.109 42.32,-36.238 17.23,-9.121 37.84,-13.68 61.83,-13.68 24,0 44.52,4.559 61.59,13.68 17.07,9.129 31.08,21.199 42.07,36.238 10.98,15.039 19.08,32.101 24.33,51.199 5.24,19.082 7.85,38.422 7.85,58.031 0,19.93 -2.61,39.36 -7.85,58.282 -5.25,18.918 -13.35,35.898 -24.33,50.949 -10.99,15.012 -25,27.101 -42.07,36.23 -17.07,9.121 -37.59,13.692 -61.59,13.692" /><path
           inkscape:connector-curvature="0"
           id="path62"
           style="fill:#2e3184;fill-opacity:1;fill-rule:nonzero;stroke:none"
           d="m 4799.77,103.91 h -31.93 v 261.539 h 29.39 v -61.34 h 1.01 c 8.13,21.289 20.7,37.68 37.77,49.172 15.67,10.547 34.12,15.828 55.37,15.828 1.88,0 3.78,-0.039 5.7,-0.121 v -31.937 c -1.88,0.09 -3.73,0.129 -5.56,0.129 -12.35,0 -23.67,-1.981 -33.98,-5.95 -11.84,-4.558 -22.04,-11.07 -30.65,-19.511 -8.62,-8.457 -15.3,-18.5 -20.03,-30.149 -4.73,-11.679 -7.09,-24.422 -7.09,-38.281 V 103.91" /><path
           inkscape:connector-curvature="0"
           id="path64"
           style="fill:#2e3184;fill-opacity:1;fill-rule:nonzero;stroke:none"
           d="m 5032.41,0 c -13.18,0 -26.02,1.53125 -38.52,4.55859 -12.52,3.05079 -23.74,7.79301 -33.7,14.20311 -9.98,6.418 -18.25,14.6172 -24.84,24.5781 -6.6,9.9688 -10.41,21.879 -11.4,35.7383 h 31.92 c 1.68,-9.7968 4.98,-18 9.88,-24.5781 4.91,-6.6016 10.82,-11.9219 17.75,-15.9687 6.91,-4.0508 14.61,-7.0118 23.06,-8.8829 8.43,-1.8398 17.04,-2.7773 25.85,-2.7773 29.72,0 51.17,8.4375 64.36,25.3477 13.18,16.8906 19.77,41.2226 19.77,72.9802 v 35.481 h -1.01 c -7.43,-16.219 -18.33,-29.239 -32.71,-39.032 -14.34,-9.796 -31.16,-14.699 -50.41,-14.699 -20.96,0 -38.87,3.461 -53.74,10.403 -14.87,6.918 -27.12,16.457 -36.73,28.628 -9.63,12.168 -16.66,26.43 -21.04,42.829 -4.39,16.382 -6.6,33.871 -6.6,52.453 0,17.91 2.61,34.879 7.87,50.949 5.23,16.027 12.83,30.07 22.8,42.059 9.96,11.992 22.31,21.449 37,28.39 14.69,6.91 31.5,10.379 50.44,10.379 9.79,0 19,-1.348 27.61,-4.051 8.63,-2.707 16.48,-6.508 23.56,-11.398 7.11,-4.899 13.44,-10.57 19.03,-16.981 5.57,-6.429 9.88,-13.179 12.92,-20.281 h 1.01 v 45.121 h 31.94 v -240.25 c 0,-19.258 -2.11,-36.6599 -6.35,-52.2107 -4.22,-15.5274 -10.9,-28.707 -20.02,-39.5274 C 5113,22.6484 5101.09,14.3789 5086.38,8.62891 5071.68,2.87891 5053.69,0 5032.41,0 m 0,346.18 c -15.21,0 -28.23,-3.129 -39.03,-9.379 -10.82,-6.242 -19.78,-14.43 -26.87,-24.582 -7.08,-10.141 -12.24,-21.707 -15.46,-34.719 -3.21,-13.012 -4.81,-26.27 -4.81,-39.781 0,-13.18 1.68,-26.028 5.06,-38.528 3.38,-12.5 8.63,-23.562 15.72,-33.191 7.09,-9.629 16.05,-17.398 26.87,-23.309 10.8,-5.921 23.64,-8.882 38.52,-8.882 13.85,0 26.01,2.961 36.48,8.882 10.49,5.911 19.26,13.68 26.36,23.309 7.11,9.629 12.42,20.691 15.97,33.191 3.56,12.5 5.32,25.348 5.32,38.528 0,12.84 -1.51,25.672 -4.56,38.511 -3.04,12.84 -7.95,24.5 -14.7,34.981 -6.76,10.469 -15.47,18.93 -26.11,25.34 -10.64,6.41 -23.57,9.629 -38.76,9.629" /><path
           inkscape:connector-curvature="0"
           id="path66"
           style="fill:#2e3184;fill-opacity:1;fill-rule:nonzero;stroke:none"
           d="m 5282.79,96.8086 c -12.16,0 -23.57,1.4414 -34.22,4.3124 -10.65,2.867 -19.95,7.43 -27.88,13.688 -7.94,6.25 -14.18,14.191 -18.76,23.82 -4.55,9.641 -6.83,21.039 -6.83,34.211 0,18.262 4.06,32.512 12.17,42.828 8.1,10.312 18.81,18.152 32.17,23.57 13.35,5.403 28.39,9.203 45.11,11.41 16.73,2.192 33.72,4.301 50.94,6.34 6.76,0.672 12.67,1.512 17.75,2.524 5.05,1.019 9.29,2.797 12.67,5.316 3.38,2.543 6,5.992 7.85,10.402 1.86,4.379 2.79,10.129 2.79,17.231 0,10.801 -1.77,19.668 -5.33,26.598 -3.53,6.929 -8.44,12.429 -14.69,16.48 -6.26,4.051 -13.52,6.84 -21.8,8.359 -8.28,1.524 -17.14,2.282 -26.6,2.282 -20.29,0 -36.84,-4.809 -49.67,-14.45 -12.84,-9.621 -19.6,-25.089 -20.29,-46.371 h -31.92 c 1.02,15.2 4.22,28.379 9.63,39.539 5.4,11.141 12.74,20.274 22.04,27.372 9.3,7.101 20.19,12.332 32.71,15.699 12.5,3.383 26.33,5.07 41.55,5.07 11.47,0 22.98,-1.09 34.46,-3.289 11.48,-2.211 21.81,-6.328 30.93,-12.41 9.12,-6.09 16.53,-14.629 22.29,-25.61 5.75,-10.98 8.62,-25.261 8.62,-42.82 V 150.031 c 0,-12.84 6.25,-19.261 18.76,-19.261 3.71,0 7.09,0.671 10.13,2.019 v -26.848 c -3.73,-0.679 -7.03,-1.191 -9.88,-1.523 -2.89,-0.348 -6.51,-0.508 -10.89,-0.508 -8.12,0 -14.63,1.09 -19.53,3.289 -4.9,2.199 -8.7,5.332 -11.39,9.391 -2.72,4.051 -4.48,8.859 -5.32,14.43 -0.86,5.582 -1.27,11.75 -1.27,18.5 h -1.01 c -5.76,-8.442 -11.58,-15.961 -17.5,-22.551 -5.91,-6.59 -12.49,-12.078 -19.76,-16.469 -7.28,-4.391 -15.55,-7.77 -24.83,-10.141 -9.3,-2.359 -20.37,-3.5504 -33.2,-3.5504 m 92.75,150.0314 c -2.03,-3.719 -5.92,-6.43 -11.66,-8.11 -5.76,-1.699 -10.81,-2.878 -15.21,-3.55 -13.51,-2.371 -27.46,-4.481 -41.8,-6.328 -14.38,-1.852 -27.47,-4.653 -39.29,-8.364 -11.84,-3.726 -21.53,-9.047 -29.15,-15.976 -7.6,-6.922 -11.41,-16.801 -11.41,-29.641 0,-8.109 1.6,-15.289 4.83,-21.539 3.2,-6.262 7.52,-11.66 12.93,-16.23 5.39,-4.563 11.65,-8.032 18.74,-10.391 7.11,-2.352 14.37,-3.531 21.79,-3.531 12.16,0 23.82,1.851 34.99,5.558 11.15,3.711 20.85,9.121 29.13,16.223 8.28,7.098 14.86,15.719 19.76,25.848 4.9,10.14 7.36,21.621 7.36,34.472 v 41.559 h -1.01" /><path
           inkscape:connector-curvature="0"
           id="path68"
           style="fill:#2e3184;fill-opacity:1;fill-rule:nonzero;stroke:none"
           d="m 5684.2,103.91 h -31.92 v 163.199 c 0,11.153 -1.02,21.539 -3.05,31.172 -2.03,9.629 -5.57,18 -10.65,25.098 -5.07,7.09 -11.9,12.66 -20.51,16.723 -8.63,4.046 -19.36,6.078 -32.2,6.078 -12.85,0 -24.26,-2.282 -34.21,-6.84 -9.96,-4.559 -18.42,-10.809 -25.35,-18.75 -6.92,-7.949 -12.33,-17.41 -16.2,-28.379 -3.91,-10.992 -6.02,-22.902 -6.35,-35.731 V 103.91 h -31.92 v 261.539 h 31.92 v -45.121 h 1.02 c 6.09,15.883 16.89,28.641 32.43,38.281 15.54,9.621 32.61,14.43 51.2,14.43 18.25,0 33.52,-2.359 45.86,-7.09 12.34,-4.738 22.22,-11.41 29.66,-20.019 7.42,-8.621 12.67,-19.18 15.72,-31.68 3.03,-12.512 4.55,-26.52 4.55,-42.07 V 103.91" /><path
           inkscape:connector-curvature="0"
           id="path70"
           style="fill:#2e3184;fill-opacity:1;fill-rule:nonzero;stroke:none"
           d="m 5776.95,103.91 h -31.93 v 261.539 h 31.93 V 103.91 m 0,310.692 h -31.93 v 51.199 h 31.93 v -51.199" /><path
           inkscape:connector-curvature="0"
           id="path72"
           style="fill:#2e3184;fill-opacity:1;fill-rule:nonzero;stroke:none"
           d="m 5931.05,96.8086 c -30.76,0 -55.7,7.2614 -74.77,21.8124 -19.1,14.508 -29.99,37.828 -32.7,69.938 h 31.94 c 1.35,-21.629 9.2,-37.938 23.56,-48.918 14.36,-10.981 32.18,-16.461 53.47,-16.461 7.76,0 15.79,0.84 24.07,2.531 8.28,1.68 15.97,4.559 23.06,8.609 7.11,4.051 12.93,9.211 17.5,15.461 4.57,6.25 6.83,13.93 6.83,23.059 0,7.769 -1.6,14.269 -4.8,19.519 -3.22,5.231 -7.52,9.629 -12.93,13.172 -5.41,3.559 -11.58,6.5 -18.51,8.879 -6.91,2.352 -13.92,4.379 -21.03,6.078 l -41.05,9.114 c -10.47,2.707 -20.1,5.828 -28.89,9.386 -8.78,3.543 -16.48,7.93 -23.06,13.172 -6.6,5.25 -11.76,11.649 -15.47,19.262 -3.71,7.609 -5.55,16.976 -5.55,28.129 0,13.179 2.93,24.508 8.85,33.961 5.92,9.449 13.6,17.058 23.07,22.808 9.44,5.739 20.01,9.961 31.67,12.668 11.65,2.703 23.23,4.051 34.74,4.051 13.15,0 25.4,-1.687 36.72,-5.07 11.32,-3.367 21.3,-8.598 29.92,-15.699 8.6,-7.098 15.46,-15.891 20.51,-26.36 5.08,-10.48 7.95,-22.808 8.64,-37 h -31.95 c -0.33,9.789 -2.36,18.32 -6.07,25.602 -3.73,7.258 -8.71,13.258 -14.96,17.976 -6.24,4.731 -13.43,8.203 -21.53,10.391 -8.13,2.199 -16.73,3.301 -25.85,3.301 -7.11,0 -14.28,-0.758 -21.55,-2.282 -7.27,-1.519 -13.93,-4.046 -20.03,-7.609 -6.07,-3.539 -10.97,-8.18 -14.68,-13.918 -3.72,-5.762 -5.58,-12.859 -5.58,-21.301 0,-7.09 1.78,-13.09 5.32,-17.992 3.54,-4.898 8.01,-9.039 13.42,-12.418 5.41,-3.379 11.33,-6.172 17.75,-8.351 6.42,-2.207 12.34,-3.989 17.75,-5.321 l 42.57,-9.636 c 9.12,-1.364 18.15,-3.801 27.12,-7.364 8.94,-3.539 16.89,-8.187 23.81,-13.918 6.92,-5.761 12.58,-12.851 16.98,-21.3 4.39,-8.45 6.6,-18.418 6.6,-29.899 0,-14.191 -3.22,-26.269 -9.63,-36.242 -6.43,-9.969 -14.63,-18.078 -24.58,-24.328 -9.98,-6.262 -21.23,-10.723 -33.72,-13.43 -12.5,-2.703 -24.83,-4.0624 -36.98,-4.0624" /><path
           inkscape:connector-curvature="0"
           id="path74"
           style="fill:#2e3184;fill-opacity:1;fill-rule:nonzero;stroke:none"
           d="m 6155.57,96.8086 c -12.17,0 -23.57,1.4414 -34.23,4.3124 -10.64,2.867 -19.93,7.43 -27.86,13.688 -7.95,6.25 -14.2,14.191 -18.77,23.82 -4.54,9.641 -6.83,21.039 -6.83,34.211 0,18.262 4.06,32.512 12.16,42.828 8.11,10.312 18.83,18.152 32.18,23.57 13.36,5.403 28.4,9.203 45.11,11.41 16.73,2.192 33.72,4.301 50.94,6.34 6.75,0.672 12.67,1.512 17.75,2.524 5.05,1.019 9.29,2.797 12.67,5.316 3.38,2.543 6,5.992 7.84,10.402 1.86,4.379 2.8,10.129 2.8,17.231 0,10.801 -1.78,19.668 -5.32,26.598 -3.54,6.929 -8.44,12.429 -14.69,16.48 -6.27,4.051 -13.54,6.84 -21.81,8.359 -8.28,1.524 -17.15,2.282 -26.6,2.282 -20.28,0 -36.85,-4.809 -49.67,-14.45 -12.85,-9.621 -19.61,-25.089 -20.29,-46.371 h -31.93 c 1.02,15.2 4.22,28.379 9.63,39.539 5.41,11.141 12.76,20.274 22.05,27.372 9.29,7.101 20.19,12.332 32.7,15.699 12.5,3.383 26.35,5.07 41.55,5.07 11.49,0 22.99,-1.09 34.47,-3.289 11.48,-2.211 21.81,-6.328 30.92,-12.41 9.12,-6.09 16.54,-14.629 22.31,-25.61 5.74,-10.98 8.6,-25.261 8.6,-42.82 V 150.031 c 0,-12.84 6.25,-19.261 18.77,-19.261 3.71,0 7.09,0.671 10.14,2.019 v -26.848 c -3.73,-0.679 -7.03,-1.191 -9.89,-1.523 -2.89,-0.348 -6.52,-0.508 -10.89,-0.508 -8.13,0 -14.62,1.09 -19.53,3.289 -4.9,2.199 -8.71,5.332 -11.4,9.391 -2.72,4.051 -4.47,8.859 -5.32,14.43 -0.85,5.582 -1.26,11.75 -1.26,18.5 h -1.02 c -5.75,-8.442 -11.57,-15.961 -17.49,-22.551 -5.92,-6.59 -12.5,-12.078 -19.77,-16.469 -7.27,-4.391 -15.53,-7.77 -24.83,-10.141 -9.3,-2.359 -20.36,-3.5504 -33.19,-3.5504 m 92.74,150.0314 c -2.03,-3.719 -5.91,-6.43 -11.65,-8.11 -5.76,-1.699 -10.82,-2.878 -15.21,-3.55 -13.51,-2.371 -27.46,-4.481 -41.81,-6.328 -14.37,-1.852 -27.47,-4.653 -39.28,-8.364 -11.83,-3.726 -21.54,-9.047 -29.16,-15.976 -7.59,-6.922 -11.39,-16.801 -11.39,-29.641 0,-8.109 1.6,-15.289 4.82,-21.539 3.2,-6.262 7.51,-11.66 12.92,-16.23 5.39,-4.563 11.66,-8.032 18.75,-10.391 7.1,-2.352 14.36,-3.531 21.79,-3.531 12.16,0 23.81,1.851 34.99,5.558 11.15,3.711 20.85,9.121 29.13,16.223 8.28,7.098 14.86,15.719 19.76,25.848 4.9,10.14 7.36,21.621 7.36,34.472 v 41.559 h -1.02" /><path
           inkscape:connector-curvature="0"
           id="path76"
           style="fill:#2e3184;fill-opacity:1;fill-rule:nonzero;stroke:none"
           d="m 6420.63,101.371 c -21.28,0 -36.15,4.141 -44.59,12.418 -8.46,8.281 -12.5,23.57 -12.17,45.879 v 178.91 h -45.62 v 26.871 h 45.62 v 78.563 h 31.94 v -78.563 h 53.21 v -26.871 h -53.21 V 162.191 c 0,-10.472 1.43,-18.66 4.3,-24.582 2.87,-5.918 10.06,-9.211 21.53,-9.879 9.14,0 18.26,0.508 27.38,1.52 v -26.871 c -4.72,0 -9.47,-0.16 -14.19,-0.5 -4.73,-0.328 -9.46,-0.508 -14.2,-0.508" /><path
           inkscape:connector-curvature="0"
           id="path78"
           style="fill:#2e3184;fill-opacity:1;fill-rule:nonzero;stroke:none"
           d="m 6527.57,103.91 h -31.92 v 261.539 h 31.92 V 103.91 m 0,310.692 h -31.92 v 51.199 h 31.92 v -51.199" /><path
           inkscape:connector-curvature="0"
           id="path80"
           style="fill:#2e3184;fill-opacity:1;fill-rule:nonzero;stroke:none"
           d="m 6699.4,96.8086 c -19.94,0 -37.59,3.6404 -52.97,10.9024 -15.37,7.258 -28.29,17.16 -38.76,29.648 -10.49,12.5 -18.44,27.11 -23.82,43.84 -5.41,16.723 -8.13,34.563 -8.13,53.473 0,18.93 2.72,36.75 8.13,53.476 5.38,16.723 13.33,31.332 23.82,43.832 10.47,12.5 23.39,22.481 38.76,29.918 15.38,7.422 33.03,11.141 52.97,11.141 19.94,0 37.58,-3.719 52.97,-11.141 15.36,-7.437 28.3,-17.418 38.76,-29.918 10.48,-12.5 18.41,-27.109 23.82,-43.832 5.41,-16.726 8.13,-34.546 8.13,-53.476 0,-18.91 -2.72,-36.75 -8.13,-53.473 -5.41,-16.73 -13.34,-31.34 -23.82,-43.84 -10.46,-12.488 -23.4,-22.39 -38.76,-29.648 -15.39,-7.262 -33.03,-10.9024 -52.97,-10.9024 m 0,249.3714 c -15.21,0 -28.57,-3.219 -40.05,-9.629 -11.48,-6.41 -21.03,-14.871 -28.63,-25.34 -7.61,-10.481 -13.35,-22.391 -17.23,-35.731 -3.89,-13.351 -5.82,-26.949 -5.82,-40.808 0,-13.852 1.93,-27.453 5.82,-40.793 3.88,-13.359 9.62,-25.27 17.23,-35.731 7.6,-10.476 17.15,-18.937 28.63,-25.359 11.48,-6.418 24.84,-9.609 40.05,-9.609 15.21,0 28.54,3.191 40.04,9.609 11.49,6.422 21.03,14.883 28.63,25.359 7.61,10.461 13.36,22.372 17.24,35.731 3.89,13.34 5.82,26.941 5.82,40.793 0,13.859 -1.93,27.457 -5.82,40.808 -3.88,13.34 -9.63,25.25 -17.24,35.731 -7.6,10.469 -17.14,18.93 -28.63,25.34 -11.5,6.41 -24.83,9.629 -40.04,9.629" /><path
           inkscape:connector-curvature="0"
           id="path82"
           style="fill:#2e3184;fill-opacity:1;fill-rule:nonzero;stroke:none"
           d="m 7082.57,103.91 h -31.92 v 163.199 c 0,11.153 -1.02,21.539 -3.05,31.172 -2.03,9.629 -5.57,18 -10.65,25.098 -5.06,7.09 -11.9,12.66 -20.51,16.723 -8.64,4.046 -19.35,6.078 -32.2,6.078 -12.85,0 -24.25,-2.282 -34.21,-6.84 -9.96,-4.559 -18.42,-10.809 -25.34,-18.75 -6.94,-7.949 -12.34,-17.41 -16.21,-28.379 -3.91,-10.992 -6.02,-22.902 -6.35,-35.731 V 103.91 h -31.92 v 261.539 h 31.92 v -45.121 h 1.01 c 6.1,15.883 16.9,28.641 32.44,38.281 15.54,9.621 32.6,14.43 51.2,14.43 18.25,0 33.52,-2.359 45.87,-7.09 12.33,-4.738 22.21,-11.41 29.65,-20.019 7.42,-8.621 12.67,-19.18 15.72,-31.68 3.03,-12.512 4.55,-26.52 4.55,-42.07 V 103.91" /><path
           inkscape:connector-curvature="0"
           id="path84"
           style="fill:#2e58a6;fill-opacity:1;fill-rule:nonzero;stroke:none"
           d="m 1694.93,706.98 422.49,1113.86 v -0.01 L 1694.93,706.98" /><path
           inkscape:connector-curvature="0"
           id="path86"
           style="fill:#1c214a;fill-opacity:1;fill-rule:nonzero;stroke:none"
           d="m 2117.42,706.98 h -422.49 l 422.49,1113.85 V 706.98" /><path
           inkscape:connector-curvature="0"
           id="path88"
           style="fill:#f68814;fill-opacity:1;fill-rule:nonzero;stroke:none"
           d="m 5732.19,706.98 h -591.76 0.15 L 4393.3,1802.21 v 0.59 l 0.9,1.16 v -2.7 l 710.96,922.75 h -2.09 l 1.19,1.54 627.93,-0.01 V 2195.95 H 5071.58 V 1972 h 660.61 v -502.37 h -660.61 v -233.05 h 660.61 v -529.6" /><path
           inkscape:connector-curvature="0"
           id="path90"
           style="fill:#b71d23;fill-opacity:1;fill-rule:nonzero;stroke:none"
           d="m 5140.58,706.98 h -0.15 L 4394.2,1800.67 V 706.98 h -0.9 V 1802.21 L 5140.58,706.98 M 4393.3,1802.8 v 922.74 h 710.96 l -1.19,-1.53 H 4394.2 v -920.05 l -0.9,-1.16" /><path
           inkscape:connector-curvature="0"
           id="path92"
           style="fill:#f8cf87;fill-opacity:1;fill-rule:nonzero;stroke:none"
           d="M 5141.48,705.449 H 4394.2 v 1.531 h 746.23 l 1.05,-1.531" /><path
           inkscape:connector-curvature="0"
           id="path94"
           style="fill:#cf3a22;fill-opacity:1;fill-rule:nonzero;stroke:none"
           d="M 5140.43,706.98 H 4394.2 V 1800.67 L 5140.43,706.98" /><path
           inkscape:connector-curvature="0"
           id="path96"
           style="fill:#f48712;fill-opacity:1;fill-rule:nonzero;stroke:none"
           d="m 4394.2,1801.26 v 2.7 l 708.87,920.05 h 2.09 L 4394.2,1801.26" /><path
           inkscape:connector-curvature="0"
           id="path98"
           style="fill:#cf3a22;fill-opacity:1;fill-rule:nonzero;stroke:none"
           d="m 4394.2,1803.96 v 920.05 h 708.87 L 4394.2,1803.96" /><path
           inkscape:connector-curvature="0"
           id="path100"
           style="fill:#5c1e5d;fill-opacity:1;fill-rule:nonzero;stroke:none"
           d="M 3710.46,706.98 H 3279.4 V 1843.41 L 3710.46,706.98" /></g></g></g></svg>