<?xml version="1.0" encoding="utf-8"?>
<!-- Generator: Adobe Illustrator 15.1.0, SVG Export Plug-In . SVG Version: 6.00 Build 0)  -->
<!DOCTYPE svg PUBLIC "-//W3C//DTD SVG 1.1//EN" "http://www.w3.org/Graphics/SVG/1.1/DTD/svg11.dtd">
<svg version="1.1" id="Layer_1" xmlns="http://www.w3.org/2000/svg" xmlns:xlink="http://www.w3.org/1999/xlink" x="0px" y="0px"
	 width="566.929px" height="175.701px" viewBox="0 0 566.929 175.701" enable-background="new 0 0 566.929 175.701"
	 xml:space="preserve">
<g>
	<path fill="#1C478A" d="M216.974,75.743c10.329,2.643,18.017,10.81,18.017,22.581c0,7.209-3.001,14.174-8.407,18.979
		c-6.246,5.646-16.576,8.65-33.033,8.65c-8.768,0-15.374-0.603-19.698-1.204V33.944c5.285-1.083,14.413-1.923,23.424-1.923
		c11.168,0,19.098,1.441,25.462,5.884c5.527,3.726,9.01,9.852,9.01,17.42c0,8.408-4.926,16.216-14.775,19.938V75.743L216.974,75.743
		z M197.995,70.338c10.092,0,16.097-5.404,16.097-12.973c0-9.13-6.847-12.131-14.775-12.131c-3.843,0-6.246,0.24-7.808,0.6v24.504
		H197.995L197.995,70.338z M191.509,112.138c1.803,0.36,3.965,0.481,7.087,0.481c9.612,0,17.779-4.324,17.779-14.775
		c0-10.689-9.13-14.534-18.26-14.534h-6.606V112.138L191.509,112.138z"/>
	<path fill="#1C478A" d="M294.927,109.256c0,5.885,0.24,11.771,0.961,15.855h-15.975l-1.081-6.968h-0.36
		c-3.844,5.285-10.329,8.288-17.778,8.288c-12.372,0-20.059-9.247-20.059-20.059c0-17.176,15.255-25.225,36.515-25.225
		c0-6.606-2.281-11.651-12.01-11.651c-6.127,0-12.134,1.922-16.457,4.564L245.32,62.53c4.444-2.643,12.732-5.644,23.183-5.644
		c20.78,0,26.424,13.211,26.424,27.866V109.256L294.927,109.256z M277.631,92.559c-9.609,0-19.579,2.282-19.579,12.012
		c0,6.367,3.964,9.13,8.408,9.13c4.205,0,11.171-3.003,11.171-11.531V92.559L277.631,92.559z"/>
	<path fill="#1C478A" d="M341.53,74.062c-1.321-0.239-2.763-0.359-4.563-0.359c-8.049,0-14.174,5.405-14.174,16.815v34.594h-17.777
		V79.107c0-8.289-0.239-14.896-0.48-20.9h15.254l0.722,11.652h0.481c3.121-8.65,10.329-13.094,16.573-13.094
		c1.685,0,2.763,0.12,3.965,0.36V74.062L341.53,74.062z"/>
	<path fill="#1C478A" d="M358.15,49.438c-5.645,0-9.488-4.084-9.488-9.489c0-5.527,3.965-9.49,9.488-9.49
		c5.766,0,9.609,3.963,9.609,9.49C367.759,45.714,363.675,49.438,358.15,49.438 M367.16,125.111h-17.775V58.207h17.775V125.111
		L367.16,125.111z"/>
	<path fill="#1C478A" d="M435.29,125.111h-17.776V86.073c0-8.167-2.643-14.654-10.209-14.654c-4.807,0-11.412,3.724-11.412,13.933
		v39.76h-17.775V78.387c0-7.808-0.242-14.175-0.482-20.06h15.375l0.842,9.008h0.357c3.004-4.924,9.61-10.449,19.34-10.449
		c12.255,0,21.741,8.528,21.741,27.267V125.111L435.29,125.111z"/>
	<path fill="#1C478A" d="M504.472,58.327c-0.361,4.805-0.601,10.689-0.601,19.938v37.718c0,13.093-1.2,37.354-33.753,37.354
		c-7.807,0-15.855-1.561-21.141-4.563l3.483-13.571c3.964,2.162,10.211,4.323,17.297,4.323c9.97,0,16.575-5.646,16.575-18.499
		v-4.923h-0.239c-3.364,5.283-9.367,8.527-16.698,8.527c-15.854,0-25.823-14.294-25.823-32.552
		c0-22.103,12.853-35.193,27.627-35.193c8.407,0,13.813,4.084,16.816,9.369h0.241l0.72-7.928H504.472L504.472,58.327z
		 M486.094,84.271c0-8.528-5.165-13.453-11.171-13.453c-8.047,0-13.453,8.168-13.453,20.78c0,11.652,4.925,19.578,13.334,19.578
		c4.084,0,11.29-2.641,11.29-13.933V84.271L486.094,84.271z"/>
	<path fill="#1C478A" d="M565.967,109.256c0,5.885,0.241,11.771,0.962,15.855h-15.978l-1.079-6.968h-0.359
		c-3.846,5.285-10.329,8.288-17.779,8.288c-12.371,0-20.059-9.247-20.059-20.059c0-17.176,15.256-25.225,36.516-25.225
		c0-6.606-2.283-11.651-12.012-11.651c-6.125,0-12.132,1.922-16.457,4.564L516.36,62.53c4.445-2.643,12.731-5.644,23.183-5.644
		c20.778,0,26.425,13.211,26.425,27.866V109.256L565.967,109.256z M548.671,92.559c-9.608,0-19.58,2.282-19.58,12.012
		c0,6.367,3.965,9.13,8.408,9.13c4.206,0,11.172-3.003,11.172-11.531V92.559L548.671,92.559z"/>
	<path fill="#CF1277" d="M177.078,165.07c0.563,0.1,1.323,0.132,2.318,0.132c3.08,0,5.728-1.291,5.728-4.636s-2.879-4.57-5.828-4.57
		h-2.218V165.07L177.078,165.07z M179.429,153.149c3.047,0,4.967-1.689,4.967-4.041c0-3.046-2.45-3.809-4.835-3.809
		c-1.258,0-2.02,0.1-2.483,0.199v7.65H179.429L179.429,153.149z M184.065,154.341c2.649,0.662,5.068,2.781,5.068,6.325
		c0,2.682-1.26,4.24-2.187,5.099c-1.689,1.624-4.47,2.386-8.643,2.386c-2.252,0-3.941-0.164-5.034-0.299v-24.936
		c1.423-0.298,3.676-0.531,5.928-0.531c7.717,0,9.04,3.776,9.04,6.325c0,2.419-1.523,4.538-4.172,5.531V154.341L184.065,154.341z"/>
	<path fill="#CF1277" d="M202.347,153.049c-0.332-0.065-0.696-0.099-1.126-0.099c-2.584,0-4.206,2.12-4.206,5.298v9.671h-3.842
		v-12.684c0-2.119-0.034-3.875-0.131-5.565h3.344l0.132,3.345h0.133c0.828-2.315,2.75-3.74,4.735-3.74
		c0.364,0,0.629,0.031,0.961,0.099V153.049L202.347,153.049z"/>
	<path fill="#CF1277" d="M209.335,167.918h-3.841v-18.28h3.841V167.918L209.335,167.918z M207.414,146.856
		c-1.324,0-2.218-0.993-2.218-2.219c0-1.292,0.927-2.253,2.253-2.253c1.322,0,2.218,0.961,2.218,2.253
		C209.667,145.863,208.805,146.856,207.414,146.856"/>
	<path fill="#CF1277" d="M225.663,156.725c0-2.418-1.589-4.405-3.941-4.405c-2.649,0-4.504,2.519-4.504,6.427
		c0,3.577,1.623,6.126,4.471,6.126c1.987,0,3.974-1.524,3.974-4.57V156.725L225.663,156.725z M229.671,149.671
		c-0.1,1.291-0.168,2.816-0.168,5.268v10.397c0,3.643-0.296,10.365-8.941,10.365c-2.119,0-4.337-0.463-5.762-1.325l0.861-2.979
		c1.127,0.661,2.882,1.291,4.934,1.291c2.981,0,5.1-1.655,5.1-5.797v-1.755h-0.065c-0.928,1.559-2.715,2.685-5.068,2.685
		c-4.304,0-7.25-3.81-7.25-8.909c0-6.192,3.74-9.637,7.715-9.637c2.714,0,4.238,1.391,5,2.848h0.066l0.167-2.451H229.671
		L229.671,149.671z"/>
	<path fill="#CF1277" d="M249.64,167.918h-3.842v-10.663c0-2.617-0.894-4.802-3.476-4.802c-1.888,0-3.909,1.556-3.909,4.306v11.159
		h-3.841v-26.559h3.841v10.796h0.067c1.192-1.889,3.246-2.881,5.233-2.881c2.749,0,5.927,1.854,5.927,7.616V167.918L249.64,167.918z
		"/>
	<path fill="#CF1277" d="M255.403,146.36l3.808-1.194v4.505h4.339v2.881h-4.339v9.239c0,2.252,0.696,3.347,2.32,3.347
		c0.762,0,1.224-0.101,1.687-0.232l0.134,2.946c-0.663,0.267-1.69,0.433-2.981,0.433c-1.524,0-2.815-0.498-3.609-1.394
		c-0.928-0.992-1.359-2.515-1.359-4.899v-9.439h-2.582v-2.881h2.582V146.36L255.403,146.36z"/>
	<path fill="#CF1277" d="M277.658,156.924c0.033-2.187-0.86-4.9-3.809-4.9c-2.815,0-4.006,2.781-4.206,4.9H277.658L277.658,156.924z
		 M280.373,167.189c-1.291,0.597-3.311,1.093-5.795,1.093c-5.497,0-8.675-3.675-8.675-9.238c0-5.431,3.044-9.771,8.211-9.771
		c5.133,0,7.186,4.273,7.186,8.776c0,0.628-0.032,1.16-0.099,1.621H269.61c0.101,4.107,2.65,5.664,5.531,5.664
		c2.021,0,3.411-0.364,4.604-0.861L280.373,167.189L280.373,167.189z"/>
	<path fill="#CF1277" d="M294.35,153.049c-0.332-0.065-0.696-0.099-1.125-0.099c-2.585,0-4.206,2.12-4.206,5.298v9.671h-3.842
		v-12.684c0-2.119-0.032-3.875-0.132-5.565h3.345l0.131,3.345h0.133c0.828-2.315,2.75-3.74,4.735-3.74
		c0.364,0,0.629,0.031,0.961,0.099V153.049L294.35,153.049z"/>
	<path fill="#CF1277" d="M305.843,146.36l3.808-1.194v4.505h4.339v2.881h-4.339v9.239c0,2.252,0.697,3.347,2.32,3.347
		c0.762,0,1.224-0.101,1.688-0.232l0.133,2.946c-0.664,0.267-1.69,0.433-2.981,0.433c-1.524,0-2.815-0.498-3.608-1.394
		c-0.929-0.992-1.359-2.515-1.359-4.899v-9.439h-2.582v-2.881h2.582V146.36L305.843,146.36z"/>
	<path fill="#CF1277" d="M324.787,152.156c-3.279,0-4.537,3.51-4.537,6.654c0,3.577,1.688,6.593,4.504,6.593
		c2.781,0,4.502-3.016,4.502-6.657C329.255,155.731,327.998,152.156,324.787,152.156 M333.197,158.646
		c0,6.82-4.437,9.636-8.543,9.636c-4.736,0-8.346-3.477-8.346-9.371c0-6.16,3.775-9.637,8.609-9.637
		C329.919,149.274,333.197,153.05,333.197,158.646"/>
	<path fill="#CF1277" d="M348.4,156.725c0-2.418-1.592-4.405-3.941-4.405c-2.648,0-4.504,2.519-4.504,6.427
		c0,3.577,1.623,6.126,4.471,6.126c1.986,0,3.975-1.524,3.975-4.57V156.725L348.4,156.725z M352.408,149.671
		c-0.101,1.291-0.168,2.816-0.168,5.268v10.397c0,3.643-0.297,10.365-8.941,10.365c-2.119,0-4.338-0.463-5.762-1.325l0.861-2.979
		c1.126,0.661,2.881,1.291,4.934,1.291c2.981,0,5.101-1.655,5.101-5.797v-1.755h-0.066c-0.927,1.559-2.716,2.685-5.067,2.685
		c-4.303,0-7.25-3.81-7.25-8.909c0-6.192,3.74-9.637,7.716-9.637c2.714,0,4.237,1.391,5,2.848h0.065l0.166-2.451H352.408
		L352.408,149.671z"/>
	<path fill="#CF1277" d="M367.939,156.924c0.034-2.187-0.859-4.9-3.809-4.9c-2.814,0-4.006,2.781-4.205,4.9H367.939L367.939,156.924
		z M370.655,167.189c-1.291,0.597-3.311,1.093-5.796,1.093c-5.497,0-8.674-3.675-8.674-9.238c0-5.431,3.045-9.771,8.212-9.771
		c5.132,0,7.185,4.273,7.185,8.776c0,0.628-0.031,1.16-0.099,1.621h-11.592c0.101,4.107,2.651,5.664,5.532,5.664
		c2.021,0,3.412-0.364,4.603-0.861L370.655,167.189L370.655,167.189z"/>
	<path fill="#CF1277" d="M376.22,146.36l3.808-1.194v4.505h4.339v2.881h-4.339v9.239c0,2.252,0.696,3.347,2.32,3.347
		c0.76,0,1.224-0.101,1.687-0.232l0.133,2.946c-0.662,0.267-1.688,0.433-2.979,0.433c-1.524,0-2.815-0.498-3.608-1.394
		c-0.93-0.992-1.359-2.515-1.359-4.899v-9.439h-2.582v-2.881h2.582V146.36L376.22,146.36z"/>
	<path fill="#CF1277" d="M402.914,167.918h-3.843v-10.663c0-2.617-0.893-4.802-3.476-4.802c-1.889,0-3.909,1.556-3.909,4.306v11.159
		h-3.841v-26.559h3.841v10.796h0.067c1.191-1.889,3.244-2.881,5.232-2.881c2.747,0,5.928,1.854,5.928,7.616V167.918L402.914,167.918
		z"/>
	<path fill="#CF1277" d="M418.544,156.924c0.033-2.187-0.859-4.9-3.809-4.9c-2.814,0-4.007,2.781-4.206,4.9H418.544L418.544,156.924
		z M421.26,167.189c-1.291,0.597-3.312,1.093-5.796,1.093c-5.498,0-8.674-3.675-8.674-9.238c0-5.431,3.045-9.771,8.211-9.771
		c5.131,0,7.186,4.273,7.186,8.776c0,0.628-0.032,1.16-0.099,1.621h-11.593c0.102,4.107,2.65,5.664,5.531,5.664
		c2.021,0,3.413-0.364,4.604-0.861L421.26,167.189L421.26,167.189z"/>
	<path fill="#CF1277" d="M435.236,153.049c-0.332-0.065-0.696-0.099-1.126-0.099c-2.584,0-4.206,2.12-4.206,5.298v9.671h-3.841
		v-12.684c0-2.119-0.034-3.875-0.132-5.565h3.344l0.132,3.345h0.133c0.828-2.315,2.748-3.74,4.735-3.74
		c0.364,0,0.629,0.031,0.961,0.099V153.049L435.236,153.049z"/>
	<polygon fill="#7D2C73" points="33.965,1.317 18.043,29.393 49.821,29.393 49.823,29.393 33.965,1.317 	"/>
	<polygon fill="#7EC3E3" points="72.211,0 88.1,28.09 103.966,0 72.211,0 	"/>
	<polygon fill="#0888BE" points="0,63.854 15.894,91.929 31.77,63.854 0,63.854 	"/>
	<polygon fill="#8D9194" points="70.038,1.294 54.148,29.393 85.937,29.393 70.038,1.294 	"/>
	<polygon fill="#8D9194" points="140.007,61.329 124.126,33.224 108.268,61.329 140.007,61.329 	"/>
	<polygon fill="#7D2C73" points="18.074,93.262 49.819,93.262 33.934,65.158 18.074,93.262 	"/>
	<polygon fill="#7D2C73" points="72.203,61.329 72.204,61.329 103.946,61.329 88.101,33.223 72.203,61.329 	"/>
	<polygon fill="#1C478A" points="67.866,125.209 51.986,97.09 36.12,125.209 67.866,125.209 	"/>
	<polygon fill="#CF1277" points="51.983,91.955 51.985,91.958 67.876,63.854 67.875,63.854 36.097,63.854 51.982,91.957 
		51.983,91.955 	"/>
	<polygon fill="#7EC3E3" points="103.944,63.854 72.205,63.854 88.102,91.956 103.945,63.854 103.944,63.854 	"/>
	<polygon fill="#CF1277" points="90.265,31.919 106.107,60.021 121.965,31.918 90.266,31.918 90.267,31.919 90.265,31.919 	"/>
	<polygon fill="#CF1277" points="90.263,95.786 106.095,123.892 121.942,95.786 90.269,95.786 90.263,95.786 	"/>
	<polygon fill="#8D9194" points="71.293,67.369 70.041,65.155 54.148,93.26 85.938,93.26 71.293,67.369 	"/>
	<polygon fill="#1C478A" points="90.265,93.26 122.005,93.26 106.108,65.158 90.264,93.26 90.265,93.26 	"/>
	<polygon fill="#7EC3E3" points="49.819,31.919 49.82,31.918 18.063,31.918 33.933,60.025 49.82,31.919 49.819,31.919 	"/>
	<polygon fill="#1C478A" points="51.985,33.22 36.097,61.329 67.876,61.329 51.985,33.22 	"/>
	<polygon fill="#0888BE" points="85.938,31.919 54.15,31.919 70.04,60.025 85.938,31.919 	"/>
	<polygon fill="#0888BE" points="70.044,123.915 85.94,95.787 54.148,95.787 70.044,123.915 	"/>
</g>
</svg>
